<svg width="22" height="22" viewBox="0 0 22 22" xmlns="http://www.w3.org/2000/svg">
<rect width="4" height="4" rx="1" />
<rect y="6" width="4" height="4" rx="1" />
<rect y="12" width="4" height="4" rx="1" />
<rect y="18" width="4" height="4" rx="1" />
<rect x="6" width="4" height="4" rx="1" />
<rect x="6" y="6" width="4" height="4" rx="1" />
<rect x="6" y="12" width="4" height="4" rx="1" />
<rect x="6" y="18" width="4" height="4" rx="1" />
<rect x="12" width="4" height="4" rx="1" />
<rect x="12" y="6" width="4" height="4" rx="1" />
<rect x="12" y="12" width="4" height="4" rx="1" />
<rect x="12" y="18" width="4" height="4" rx="1" />
<rect x="18" width="4" height="4" rx="1" />
<rect x="18" y="6" width="4" height="4" rx="1" />
<rect x="18" y="12" width="4" height="4" rx="1" />
<rect x="18" y="18" width="4" height="4" rx="1" />
</svg>
