<svg width="20" height="20" viewBox="0 0 20 20" fill="none" xmlns="http://www.w3.org/2000/svg">
<path d="M4.99992 16.6663C4.30547 16.6663 3.7152 16.4233 3.22909 15.9372C2.74297 15.4511 2.49992 14.8608 2.49992 14.1663H0.833252V4.99967C0.833252 4.54134 0.996585 4.14912 1.32325 3.82301C1.64992 3.4969 2.04214 3.33356 2.49992 3.33301H14.1666V6.66634H16.6666L19.1666 9.99967V14.1663H17.4999C17.4999 14.8608 17.2569 15.4511 16.7708 15.9372C16.2846 16.4233 15.6944 16.6663 14.9999 16.6663C14.3055 16.6663 13.7152 16.4233 13.2291 15.9372C12.743 15.4511 12.4999 14.8608 12.4999 14.1663H7.49992C7.49992 14.8608 7.25686 15.4511 6.77075 15.9372C6.28464 16.4233 5.69436 16.6663 4.99992 16.6663ZM4.99992 14.9997C5.23603 14.9997 5.43409 14.9197 5.59409 14.7597C5.75409 14.5997 5.83381 14.4019 5.83325 14.1663C5.8327 13.9308 5.7527 13.733 5.59325 13.573C5.43381 13.413 5.23603 13.333 4.99992 13.333C4.76381 13.333 4.56603 13.413 4.40659 13.573C4.24714 13.733 4.16714 13.9308 4.16659 14.1663C4.16603 14.4019 4.24603 14.6 4.40659 14.7605C4.56714 14.9211 4.76492 15.0008 4.99992 14.9997ZM2.49992 12.4997H3.16659C3.4027 12.2497 3.67353 12.0483 3.97909 11.8955C4.28464 11.7427 4.62492 11.6663 4.99992 11.6663C5.37492 11.6663 5.7152 11.7427 6.02075 11.8955C6.32631 12.0483 6.59714 12.2497 6.83325 12.4997H12.4999V4.99967H2.49992V12.4997ZM14.9999 14.9997C15.236 14.9997 15.4341 14.9197 15.5941 14.7597C15.7541 14.5997 15.8338 14.4019 15.8333 14.1663C15.8327 13.9308 15.7527 13.733 15.5933 13.573C15.4338 13.413 15.236 13.333 14.9999 13.333C14.7638 13.333 14.566 13.413 14.4066 13.573C14.2471 13.733 14.1671 13.9308 14.1666 14.1663C14.166 14.4019 14.246 14.6 14.4066 14.7605C14.5671 14.9211 14.7649 15.0008 14.9999 14.9997ZM14.1666 10.833H17.7083L15.8333 8.33301H14.1666V10.833Z" fill="#27AE60"/>
</svg>
