<svg width="117" height="56" viewBox="0 0 117 56" fill="currentColor" xmlns="http://www.w3.org/2000/svg">
<path d="M4.66406 11.3906L28.8047 37.0781V20.5781C28.8047 19.25 28.7891 18.0938 28.7578 17.1094C28.7266 16.1094 28.6797 15.25 28.6172 14.5312C28.5547 13.7969 28.4766 13.1875 28.3828 12.7031C28.3047 12.2187 28.2188 11.8125 28.125 11.4844V11.3906H32.2969V11.4844C32.2031 11.8125 32.1172 12.2187 32.0391 12.7031C31.9609 13.1875 31.8906 13.7969 31.8281 14.5312C31.7656 15.25 31.7188 16.1094 31.6875 17.1094C31.6562 18.0938 31.6406 19.25 31.6406 20.5781V45.4688H30.8203L6.67969 19.8047V35.8359C6.67969 37.1641 6.69531 38.3281 6.72656 39.3281C6.75781 40.3125 6.80469 41.1641 6.86719 41.8828C6.92969 42.6016 7 43.2031 7.07812 43.6875C7.15625 44.1719 7.24219 44.5781 7.33594 44.9062V45H3.16406V44.9062C3.25781 44.5781 3.34375 44.1719 3.42188 43.6875C3.51562 43.2031 3.59375 42.6016 3.65625 41.8828C3.71875 41.1641 3.76562 40.3125 3.79688 39.3281C3.82812 38.3281 3.84375 37.1641 3.84375 35.8359V20.5781C3.84375 19.25 3.82812 18.0938 3.79688 17.1094C3.76562 16.1094 3.71875 15.25 3.65625 14.5312C3.59375 13.7969 3.51562 13.1875 3.42188 12.7031C3.34375 12.2187 3.25781 11.8125 3.16406 11.4844V11.3906H4.66406Z" fill="currentColor"/>
<path d="M39.749 17.3965L48.8018 27.0293V20.8418C48.8018 20.3438 48.7959 19.9102 48.7842 19.541C48.7725 19.166 48.7549 18.8438 48.7314 18.5742C48.708 18.2988 48.6787 18.0703 48.6436 17.8887C48.6143 17.707 48.582 17.5547 48.5469 17.4316V17.3965H50.1113V17.4316C50.0762 17.5547 50.0439 17.707 50.0146 17.8887C49.9854 18.0703 49.959 18.2988 49.9355 18.5742C49.9121 18.8438 49.8945 19.166 49.8828 19.541C49.8711 19.9102 49.8652 20.3438 49.8652 20.8418V30.1758H49.5576L40.5049 20.5518V26.5635C40.5049 27.0615 40.5107 27.498 40.5225 27.873C40.5342 28.2422 40.5518 28.5615 40.5752 28.8311C40.5986 29.1006 40.625 29.3262 40.6543 29.5078C40.6836 29.6895 40.7158 29.8418 40.751 29.9648V30H39.1865V29.9648C39.2217 29.8418 39.2539 29.6895 39.2832 29.5078C39.3184 29.3262 39.3477 29.1006 39.3711 28.8311C39.3945 28.5615 39.4121 28.2422 39.4238 27.873C39.4355 27.498 39.4414 27.0615 39.4414 26.5635V20.8418C39.4414 20.3438 39.4355 19.9102 39.4238 19.541C39.4121 19.166 39.3945 18.8438 39.3711 18.5742C39.3477 18.2988 39.3184 18.0703 39.2832 17.8887C39.2539 17.707 39.2217 17.5547 39.1865 17.4316V17.3965H39.749ZM57.9515 17.1855C58.93 17.1855 59.8324 17.3467 60.6586 17.6689C61.4906 17.9854 62.2084 18.4336 62.8119 19.0137C63.4154 19.5879 63.8871 20.2793 64.2269 21.0879C64.5668 21.8965 64.7367 22.79 64.7367 23.7686C64.7367 24.3252 64.6722 24.873 64.5433 25.4121C64.4144 25.9512 64.224 26.4609 63.972 26.9414C63.7259 27.4219 63.4213 27.8672 63.058 28.2773C62.6947 28.6816 62.2787 29.0332 61.8099 29.332C61.347 29.625 60.8343 29.8535 60.2718 30.0176C59.7093 30.1875 59.1029 30.2725 58.4525 30.2725C57.474 30.2725 56.5687 30.1172 55.7367 29.8066C54.9105 29.4902 54.1957 29.0449 53.5921 28.4707C52.9886 27.8965 52.517 27.208 52.1771 26.4053C51.8373 25.5967 51.6673 24.7002 51.6673 23.7158C51.6673 23.1592 51.7318 22.6113 51.8607 22.0723C51.9896 21.5332 52.1771 21.0205 52.4232 20.5342C52.6752 20.0479 52.9798 19.6025 53.3373 19.1982C53.7005 18.7881 54.1136 18.4336 54.5765 18.1348C55.0453 17.8359 55.5609 17.6045 56.1234 17.4404C56.6918 17.2705 57.3011 17.1855 57.9515 17.1855ZM58.4525 29.4814C59.1029 29.4814 59.6976 29.3643 60.2367 29.1299C60.7757 28.8955 61.2386 28.5557 61.6254 28.1104C62.0179 27.665 62.3226 27.123 62.5394 26.4844C62.7562 25.8398 62.8646 25.1104 62.8646 24.2959C62.8646 23.3936 62.7591 22.5586 62.5482 21.791C62.3431 21.0176 62.0355 20.3496 61.6254 19.7871C61.2152 19.2188 60.7025 18.7764 60.0873 18.46C59.4779 18.1377 58.766 17.9766 57.9515 17.9766C57.3011 17.9766 56.7064 18.0938 56.1673 18.3281C55.6283 18.5566 55.1625 18.8906 54.7699 19.3301C54.3832 19.7695 54.0814 20.3086 53.8646 20.9473C53.6478 21.5859 53.5394 22.3125 53.5394 23.127C53.5394 24.0234 53.642 24.8613 53.847 25.6406C54.0521 26.4141 54.3597 27.085 54.7699 27.6533C55.18 28.2217 55.6927 28.6699 56.308 28.998C56.9232 29.3203 57.638 29.4814 58.4525 29.4814ZM67.154 17.3965V17.4316C67.1423 17.4609 67.1335 17.5049 67.1277 17.5635C67.1218 17.6221 67.1189 17.6748 67.1189 17.7217C67.1189 17.9033 67.1423 18.1055 67.1892 18.3281C67.2419 18.5449 67.3386 18.8174 67.4792 19.1455L71.3728 27.9258L75.1345 19.2158C75.2224 18.999 75.3161 18.7617 75.4157 18.5039C75.5154 18.2461 75.5652 17.9854 75.5652 17.7217C75.5652 17.6514 75.5593 17.5928 75.5476 17.5459C75.5359 17.4932 75.5241 17.4551 75.5124 17.4316V17.3965H77.3142V17.4316C77.2029 17.543 77.0681 17.7422 76.9099 18.0293C76.7517 18.3164 76.5788 18.6709 76.3913 19.0928L71.3552 30.2725H70.6521L65.8796 19.5234C65.7683 19.2715 65.6511 19.0283 65.528 18.7939C65.4109 18.5596 65.2995 18.3486 65.1941 18.1611C65.0886 17.9678 64.9948 17.8066 64.9128 17.6777C64.8308 17.5488 64.7751 17.4668 64.7458 17.4316V17.3965H67.154ZM77.8507 17.3965C78.5831 17.3965 79.3096 17.3936 80.0303 17.3877C80.7569 17.3818 81.422 17.376 82.0255 17.3701C82.629 17.3584 83.1446 17.3438 83.5723 17.3262C84.0001 17.3086 84.2901 17.2852 84.4425 17.2559L84.0118 18.4248C83.8184 18.3721 83.5928 18.3252 83.335 18.2842C83.1124 18.249 82.8399 18.2168 82.5177 18.1875C82.2012 18.1523 81.835 18.1348 81.419 18.1348C81.2784 18.1348 81.1085 18.1406 80.9093 18.1523C80.7159 18.1582 80.5284 18.167 80.3468 18.1787C80.1358 18.1904 79.922 18.2021 79.7052 18.2139V23.0127C80.3087 23.0068 80.8536 22.9893 81.3399 22.96C81.8262 22.9307 82.2393 22.9014 82.5792 22.8721C82.9776 22.8369 83.3292 22.7959 83.6339 22.749L83.3614 24.0234C82.9571 23.9707 82.544 23.9209 82.1221 23.874C81.7589 23.833 81.3634 23.7979 80.9356 23.7686C80.5079 23.7334 80.0977 23.7158 79.7052 23.7158V29.2266C80.3966 29.2266 81.0323 29.1973 81.6124 29.1387C82.1925 29.0801 82.6993 29.0127 83.1329 28.9365C83.6368 28.8545 84.0968 28.7578 84.5128 28.6465L84.2579 30.0703C84.1876 30.0645 84.0821 30.0586 83.9415 30.0527C83.8009 30.0469 83.6427 30.041 83.4669 30.0352C83.297 30.0293 83.1153 30.0234 82.922 30.0176C82.7345 30.0176 82.5557 30.0146 82.3858 30.0088C82.2159 30.0088 82.0636 30.0059 81.9288 30C81.7999 30 81.7061 30 81.6475 30H77.8507V29.9648C77.8858 29.8418 77.918 29.6895 77.9473 29.5078C77.9825 29.3262 78.0118 29.1006 78.0352 28.8311C78.0587 28.5615 78.0762 28.2422 78.088 27.873C78.0997 27.498 78.1055 27.0615 78.1055 26.5635V20.8418C78.1055 20.3438 78.0997 19.9102 78.088 19.541C78.0762 19.166 78.0587 18.8438 78.0352 18.5742C78.0118 18.2988 77.9825 18.0703 77.9473 17.8887C77.918 17.707 77.8858 17.5547 77.8507 17.4316V17.3965ZM88.1694 29.2266C88.8608 29.2266 89.4965 29.1973 90.0766 29.1387C90.6567 29.0801 91.1635 29.0127 91.5971 28.9365C92.101 28.8545 92.561 28.7578 92.977 28.6465L92.7221 30.0703C92.6518 30.0645 92.5463 30.0586 92.4057 30.0527C92.2651 30.0469 92.1069 30.041 91.9311 30.0352C91.7612 30.0293 91.5795 30.0234 91.3862 30.0176C91.1987 30.0176 91.02 30.0146 90.85 30.0088C90.6801 30.0088 90.5278 30.0059 90.393 30C90.2641 30 90.1704 30 90.1118 30H86.3149V29.9648C86.35 29.8418 86.3823 29.6895 86.4116 29.5078C86.4467 29.3262 86.476 29.1006 86.4995 28.8311C86.5229 28.5615 86.5405 28.2422 86.5522 27.873C86.5639 27.498 86.5698 27.0615 86.5698 26.5635V20.8418C86.5698 20.3438 86.5639 19.9102 86.5522 19.541C86.5405 19.166 86.5229 18.8438 86.4995 18.5742C86.476 18.2988 86.4467 18.0703 86.4116 17.8887C86.3823 17.707 86.35 17.5547 86.3149 17.4316V17.3965H88.4243V17.4316C88.3891 17.5547 88.3539 17.707 88.3188 17.8887C88.2895 18.0703 88.2631 18.2988 88.2397 18.5742C88.2221 18.8438 88.2045 19.166 88.187 19.541C88.1752 19.9102 88.1694 20.3438 88.1694 20.8418V29.2266ZM96.0887 29.2266C96.7801 29.2266 97.4158 29.1973 97.9959 29.1387C98.576 29.0801 99.0828 29.0127 99.5164 28.9365C100.02 28.8545 100.48 28.7578 100.896 28.6465L100.641 30.0703C100.571 30.0645 100.466 30.0586 100.325 30.0527C100.184 30.0469 100.026 30.041 99.8504 30.0352C99.6805 30.0293 99.4988 30.0234 99.3055 30.0176C99.118 30.0176 98.9393 30.0146 98.7693 30.0088C98.5994 30.0088 98.4471 30.0059 98.3123 30C98.1834 30 98.0896 30 98.0311 30H94.2342V29.9648C94.2693 29.8418 94.3016 29.6895 94.3309 29.5078C94.366 29.3262 94.3953 29.1006 94.4188 28.8311C94.4422 28.5615 94.4598 28.2422 94.4715 27.873C94.4832 27.498 94.4891 27.0615 94.4891 26.5635V20.8418C94.4891 20.3438 94.4832 19.9102 94.4715 19.541C94.4598 19.166 94.4422 18.8438 94.4188 18.5742C94.3953 18.2988 94.366 18.0703 94.3309 17.8887C94.3016 17.707 94.2693 17.5547 94.2342 17.4316V17.3965H96.3436V17.4316C96.3084 17.5547 96.2732 17.707 96.2381 17.8887C96.2088 18.0703 96.1824 18.2988 96.159 18.5742C96.1414 18.8438 96.1238 19.166 96.1063 19.541C96.0945 19.9102 96.0887 20.3438 96.0887 20.8418V29.2266ZM110.872 30V29.9648C110.884 29.9355 110.893 29.8916 110.899 29.833C110.904 29.7744 110.907 29.7217 110.907 29.6748C110.907 29.4932 110.881 29.2939 110.828 29.0771C110.781 28.8545 110.688 28.5791 110.547 28.251L109.484 25.8604C109.155 25.8486 108.719 25.8428 108.174 25.8428C107.629 25.8428 107.04 25.8428 106.407 25.8428C105.944 25.8428 105.496 25.8428 105.063 25.8428C104.635 25.8428 104.248 25.8486 103.903 25.8604L102.892 28.1807C102.804 28.3975 102.71 28.6348 102.611 28.8926C102.511 29.1504 102.461 29.4111 102.461 29.6748C102.461 29.751 102.467 29.8154 102.479 29.8682C102.49 29.915 102.502 29.9473 102.514 29.9648V30H100.721V29.9648C100.826 29.8535 100.958 29.6572 101.116 29.376C101.275 29.0889 101.447 28.7314 101.635 28.3037L106.671 17.1328H107.374L112.147 27.873C112.258 28.125 112.372 28.3711 112.489 28.6113C112.612 28.8457 112.727 29.0566 112.832 29.2441C112.938 29.4316 113.031 29.5898 113.113 29.7188C113.195 29.8477 113.251 29.9297 113.28 29.9648V30H110.872ZM105.177 25.0869C105.517 25.0869 105.865 25.0869 106.223 25.0869C106.58 25.0811 106.929 25.0781 107.269 25.0781C107.614 25.0723 107.945 25.0693 108.262 25.0693C108.578 25.0635 108.865 25.0576 109.123 25.0518L106.653 19.4707L104.228 25.0869H105.177Z" fill="currentColor"/>
<path d="M41.1133 34.3047C41.5482 34.3047 41.9492 34.3763 42.3164 34.5195C42.6862 34.6602 43.0052 34.8594 43.2734 35.1172C43.5417 35.3724 43.7513 35.6797 43.9023 36.0391C44.0534 36.3984 44.1289 36.7956 44.1289 37.2305C44.1289 37.4779 44.1003 37.7214 44.043 37.9609C43.9857 38.2005 43.901 38.4271 43.7891 38.6406C43.6797 38.8542 43.5443 39.0521 43.3828 39.2344C43.2214 39.4141 43.0365 39.5703 42.8281 39.7031C42.6224 39.8333 42.3945 39.9349 42.1445 40.0078C41.8945 40.0833 41.625 40.1211 41.3359 40.1211C40.901 40.1211 40.4987 40.0521 40.1289 39.9141C39.7617 39.7734 39.444 39.5755 39.1758 39.3203C38.9076 39.0651 38.6979 38.7591 38.5469 38.4023C38.3958 38.043 38.3203 37.6445 38.3203 37.207C38.3203 36.9596 38.349 36.7161 38.4062 36.4766C38.4635 36.237 38.5469 36.0091 38.6562 35.793C38.7682 35.5768 38.9036 35.3789 39.0625 35.1992C39.224 35.0169 39.4076 34.8594 39.6133 34.7266C39.8216 34.5938 40.0508 34.4909 40.3008 34.418C40.5534 34.3424 40.8242 34.3047 41.1133 34.3047ZM41.3359 39.7695C41.625 39.7695 41.8893 39.7174 42.1289 39.6133C42.3685 39.5091 42.5742 39.3581 42.7461 39.1602C42.9206 38.9622 43.056 38.7214 43.1523 38.4375C43.2487 38.151 43.2969 37.8268 43.2969 37.4648C43.2969 37.0638 43.25 36.6927 43.1562 36.3516C43.0651 36.0078 42.9284 35.7109 42.7461 35.4609C42.5638 35.2083 42.3359 35.0117 42.0625 34.8711C41.7917 34.7279 41.4753 34.6562 41.1133 34.6562C40.8242 34.6562 40.5599 34.7083 40.3203 34.8125C40.0807 34.9141 39.8737 35.0625 39.6992 35.2578C39.5273 35.4531 39.3932 35.6927 39.2969 35.9766C39.2005 36.2604 39.1523 36.5833 39.1523 36.9453C39.1523 37.3438 39.1979 37.7161 39.2891 38.0625C39.3802 38.4062 39.5169 38.7044 39.6992 38.957C39.8815 39.2096 40.1094 39.4089 40.3828 39.5547C40.6562 39.6979 40.974 39.7695 41.3359 39.7695ZM45.0705 34.3984L49.0939 38.6797V35.9297C49.0939 35.7083 49.0913 35.5156 49.0861 35.3516C49.0809 35.1849 49.0731 35.0417 49.0627 34.9219C49.0522 34.7995 49.0392 34.6979 49.0236 34.6172C49.0106 34.5365 48.9963 34.4688 48.9806 34.4141V34.3984H49.6759V34.4141C49.6603 34.4688 49.646 34.5365 49.633 34.6172C49.6199 34.6979 49.6082 34.7995 49.5978 34.9219C49.5874 35.0417 49.5796 35.1849 49.5744 35.3516C49.5692 35.5156 49.5666 35.7083 49.5666 35.9297V40.0781H49.4298L45.4064 35.8008V38.4727C45.4064 38.694 45.409 38.888 45.4142 39.0547C45.4194 39.2188 45.4272 39.3607 45.4377 39.4805C45.4481 39.6003 45.4598 39.7005 45.4728 39.7812C45.4858 39.862 45.5002 39.9297 45.5158 39.9844V40H44.8205V39.9844C44.8361 39.9297 44.8504 39.862 44.8634 39.7812C44.8791 39.7005 44.8921 39.6003 44.9025 39.4805C44.9129 39.3607 44.9207 39.2188 44.9259 39.0547C44.9311 38.888 44.9338 38.694 44.9338 38.4727V35.9297C44.9338 35.7083 44.9311 35.5156 44.9259 35.3516C44.9207 35.1849 44.9129 35.0417 44.9025 34.9219C44.8921 34.7995 44.8791 34.6979 44.8634 34.6172C44.8504 34.5365 44.8361 34.4688 44.8205 34.4141V34.3984H45.0705ZM51.43 39.6562C51.7373 39.6562 52.0198 39.6432 52.2777 39.6172C52.5355 39.5911 52.7607 39.5612 52.9534 39.5273C53.1774 39.4909 53.3818 39.4479 53.5667 39.3984L53.4534 40.0312C53.4222 40.0286 53.3753 40.026 53.3128 40.0234C53.2503 40.0208 53.18 40.0182 53.1019 40.0156C53.0264 40.013 52.9456 40.0104 52.8597 40.0078C52.7764 40.0078 52.6969 40.0065 52.6214 40.0039C52.5459 40.0039 52.4782 40.0026 52.4183 40C52.361 40 52.3193 40 52.2933 40H50.6058V39.9844C50.6214 39.9297 50.6357 39.862 50.6488 39.7812C50.6644 39.7005 50.6774 39.6003 50.6878 39.4805C50.6982 39.3607 50.706 39.2188 50.7113 39.0547C50.7165 38.888 50.7191 38.694 50.7191 38.4727V35.9297C50.7191 35.7083 50.7165 35.5156 50.7113 35.3516C50.706 35.1849 50.6982 35.0417 50.6878 34.9219C50.6774 34.7995 50.6644 34.6979 50.6488 34.6172C50.6357 34.5365 50.6214 34.4688 50.6058 34.4141V34.3984H51.5433V34.4141C51.5277 34.4688 51.512 34.5365 51.4964 34.6172C51.4834 34.6979 51.4717 34.7995 51.4613 34.9219C51.4534 35.0417 51.4456 35.1849 51.4378 35.3516C51.4326 35.5156 51.43 35.7083 51.43 35.9297V39.6562ZM54.1606 39.9844C54.1763 39.9297 54.1906 39.862 54.2036 39.7812C54.2166 39.7005 54.2283 39.6003 54.2388 39.4805C54.2492 39.3607 54.257 39.2188 54.2622 39.0547C54.2674 38.888 54.27 38.694 54.27 38.4727V35.9297C54.27 35.7083 54.2674 35.5156 54.2622 35.3516C54.257 35.1849 54.2492 35.0417 54.2388 34.9219C54.2283 34.7995 54.2166 34.6979 54.2036 34.6172C54.1906 34.5365 54.1763 34.4688 54.1606 34.4141V34.3984H55.0942V34.4141C55.0786 34.4688 55.063 34.5365 55.0473 34.6172C55.0343 34.6979 55.0226 34.7995 55.0122 34.9219C55.0044 35.0417 54.9966 35.1849 54.9888 35.3516C54.9835 35.5156 54.9809 35.7083 54.9809 35.9297V38.4727C54.9809 38.694 54.9835 38.888 54.9888 39.0547C54.9966 39.2188 55.0044 39.3607 55.0122 39.4805C55.0226 39.6003 55.0343 39.7005 55.0473 39.7812C55.063 39.862 55.0786 39.9297 55.0942 39.9844V40H54.1606V39.9844ZM56.3092 34.3984L60.3327 38.6797V35.9297C60.3327 35.7083 60.3301 35.5156 60.3248 35.3516C60.3196 35.1849 60.3118 35.0417 60.3014 34.9219C60.291 34.7995 60.278 34.6979 60.2623 34.6172C60.2493 34.5365 60.235 34.4688 60.2194 34.4141V34.3984H60.9147V34.4141C60.8991 34.4688 60.8847 34.5365 60.8717 34.6172C60.8587 34.6979 60.847 34.7995 60.8366 34.9219C60.8261 35.0417 60.8183 35.1849 60.8131 35.3516C60.8079 35.5156 60.8053 35.7083 60.8053 35.9297V40.0781H60.6686L56.6452 35.8008V38.4727C56.6452 38.694 56.6478 38.888 56.653 39.0547C56.6582 39.2188 56.666 39.3607 56.6764 39.4805C56.6868 39.6003 56.6985 39.7005 56.7116 39.7812C56.7246 39.862 56.7389 39.9297 56.7545 39.9844V40H56.0592V39.9844C56.0748 39.9297 56.0892 39.862 56.1022 39.7812C56.1178 39.7005 56.1308 39.6003 56.1413 39.4805C56.1517 39.3607 56.1595 39.2188 56.1647 39.0547C56.1699 38.888 56.1725 38.694 56.1725 38.4727V35.9297C56.1725 35.7083 56.1699 35.5156 56.1647 35.3516C56.1595 35.1849 56.1517 35.0417 56.1413 34.9219C56.1308 34.7995 56.1178 34.6979 56.1022 34.6172C56.0892 34.5365 56.0748 34.4688 56.0592 34.4141V34.3984H56.3092ZM61.8445 34.3984C62.1701 34.3984 62.493 34.3971 62.8133 34.3945C63.1362 34.3919 63.4318 34.3893 63.7 34.3867C63.9682 34.3815 64.1974 34.375 64.3875 34.3672C64.5776 34.3594 64.7065 34.349 64.7742 34.3359L64.5828 34.8555C64.4969 34.832 64.3966 34.8112 64.282 34.793C64.1831 34.7773 64.062 34.763 63.9188 34.75C63.7781 34.7344 63.6154 34.7266 63.4305 34.7266C63.368 34.7266 63.2924 34.7292 63.2039 34.7344C63.118 34.737 63.0346 34.7409 62.9539 34.7461C62.8602 34.7513 62.7651 34.7565 62.6688 34.7617V36.8945C62.937 36.8919 63.1792 36.8841 63.3953 36.8711C63.6115 36.8581 63.7951 36.8451 63.9461 36.832C64.1232 36.8164 64.2794 36.7982 64.4148 36.7773L64.2938 37.3438C64.1141 37.3203 63.9305 37.2982 63.743 37.2773C63.5815 37.2591 63.4057 37.2435 63.2156 37.2305C63.0255 37.2148 62.8432 37.207 62.6688 37.207V39.6562C62.976 39.6562 63.2586 39.6432 63.5164 39.6172C63.7742 39.5911 63.9995 39.5612 64.1922 39.5273C64.4161 39.4909 64.6206 39.4479 64.8055 39.3984L64.6922 40.0312C64.6609 40.0286 64.6141 40.026 64.5516 40.0234C64.4891 40.0208 64.4188 40.0182 64.3406 40.0156C64.2651 40.013 64.1844 40.0104 64.0984 40.0078C64.0151 40.0078 63.9357 40.0065 63.8602 40.0039C63.7846 40.0039 63.7169 40.0026 63.657 40C63.5997 40 63.5581 40 63.532 40H61.8445V39.9844C61.8602 39.9297 61.8745 39.862 61.8875 39.7812C61.9031 39.7005 61.9161 39.6003 61.9266 39.4805C61.937 39.3607 61.9448 39.2188 61.95 39.0547C61.9552 38.888 61.9578 38.694 61.9578 38.4727V35.9297C61.9578 35.7083 61.9552 35.5156 61.95 35.3516C61.9448 35.1849 61.937 35.0417 61.9266 34.9219C61.9161 34.7995 61.9031 34.6979 61.8875 34.6172C61.8745 34.5365 61.8602 34.4688 61.8445 34.4141V34.3984ZM67.9581 35.9297C67.9581 35.7083 67.9555 35.5156 67.9503 35.3516C67.9451 35.1849 67.9373 35.0417 67.9269 34.9219C67.9165 34.7995 67.9034 34.6979 67.8878 34.6172C67.8748 34.5365 67.8605 34.4688 67.8448 34.4141V34.3984C67.8969 34.401 67.9516 34.4023 68.0089 34.4023C68.0584 34.4049 68.1131 34.4062 68.173 34.4062C68.2355 34.4062 68.2993 34.4062 68.3644 34.4062C68.4581 34.4062 68.5844 34.3971 68.7433 34.3789C68.9047 34.3607 69.1118 34.3516 69.3644 34.3516C69.5987 34.3516 69.8149 34.3828 70.0128 34.4453C70.2107 34.5052 70.3813 34.5924 70.5245 34.707C70.6704 34.8216 70.7836 34.9635 70.8644 35.1328C70.9477 35.2995 70.9894 35.4896 70.9894 35.7031C70.9894 35.8828 70.9646 36.0443 70.9152 36.1875C70.8657 36.3281 70.7954 36.4518 70.7042 36.5586C70.6157 36.6628 70.5076 36.7513 70.38 36.8242C70.255 36.8945 70.117 36.9505 69.9659 36.9922C70.1873 37.026 70.3891 37.0833 70.5714 37.1641C70.7537 37.2422 70.9099 37.3411 71.0402 37.4609C71.173 37.5807 71.2745 37.7214 71.3448 37.8828C71.4178 38.0417 71.4542 38.2188 71.4542 38.4141C71.4542 38.9635 71.2732 39.3763 70.9112 39.6523C70.5493 39.9258 70.0076 40.0625 69.2862 40.0625C69.2081 40.0625 69.117 40.0586 69.0128 40.0508C68.9086 40.0456 68.8019 40.0391 68.6925 40.0312C68.5857 40.0234 68.4803 40.0156 68.3761 40.0078C68.2719 40.0026 68.1808 40 68.1027 40H67.8448V39.9844C67.8605 39.9297 67.8748 39.862 67.8878 39.7812C67.9034 39.7005 67.9165 39.6003 67.9269 39.4805C67.9373 39.3607 67.9451 39.2188 67.9503 39.0547C67.9555 38.888 67.9581 38.694 67.9581 38.4727V35.9297ZM69.3917 37.2305C69.2146 37.2305 69.0662 37.237 68.9464 37.25C68.8266 37.263 68.7342 37.276 68.6691 37.2891V38.4727C68.6691 38.7773 68.6743 39.0286 68.6847 39.2266C68.6951 39.4245 68.7094 39.5859 68.7277 39.7109C68.8266 39.724 68.9256 39.7357 69.0245 39.7461C69.1235 39.7565 69.2029 39.7617 69.2628 39.7617C69.7498 39.7617 70.1053 39.6536 70.3292 39.4375C70.5558 39.2188 70.6691 38.8841 70.6691 38.4336C70.6691 38.2565 70.6417 38.0951 70.587 37.9492C70.5349 37.8008 70.4555 37.6732 70.3487 37.5664C70.2446 37.4596 70.1118 37.3776 69.9503 37.3203C69.7915 37.2604 69.6053 37.2305 69.3917 37.2305ZM68.6691 36.9375C68.742 36.9453 68.8071 36.9505 68.8644 36.9531C68.9217 36.9531 68.9829 36.9531 69.048 36.9531C69.2251 36.9531 69.3865 36.9284 69.5323 36.8789C69.6782 36.8268 69.8019 36.75 69.9034 36.6484C70.0076 36.5469 70.0883 36.4206 70.1456 36.2695C70.2029 36.1159 70.2316 35.9375 70.2316 35.7344C70.2316 35.5651 70.2107 35.4115 70.1691 35.2734C70.1274 35.1354 70.0649 35.0182 69.9816 34.9219C69.9008 34.8229 69.8006 34.7474 69.6808 34.6953C69.561 34.6432 69.4243 34.6172 69.2706 34.6172C69.1717 34.6172 69.0844 34.6211 69.0089 34.6289C68.936 34.6367 68.8735 34.6458 68.8214 34.6562C68.7615 34.6667 68.7107 34.6797 68.6691 34.6953V36.9375ZM74.7317 34.3047C75.1666 34.3047 75.5677 34.3763 75.9348 34.5195C76.3046 34.6602 76.6236 34.8594 76.8919 35.1172C77.1601 35.3724 77.3697 35.6797 77.5208 36.0391C77.6718 36.3984 77.7473 36.7956 77.7473 37.2305C77.7473 37.4779 77.7187 37.7214 77.6614 37.9609C77.6041 38.2005 77.5195 38.4271 77.4075 38.6406C77.2981 38.8542 77.1627 39.0521 77.0013 39.2344C76.8398 39.4141 76.6549 39.5703 76.4466 39.7031C76.2408 39.8333 76.013 39.9349 75.763 40.0078C75.513 40.0833 75.2434 40.1211 74.9544 40.1211C74.5195 40.1211 74.1171 40.0521 73.7473 39.9141C73.3802 39.7734 73.0624 39.5755 72.7942 39.3203C72.526 39.0651 72.3164 38.7591 72.1653 38.4023C72.0143 38.043 71.9388 37.6445 71.9388 37.207C71.9388 36.9596 71.9674 36.7161 72.0247 36.4766C72.082 36.237 72.1653 36.0091 72.2747 35.793C72.3867 35.5768 72.5221 35.3789 72.6809 35.1992C72.8424 35.0169 73.026 34.8594 73.2317 34.7266C73.4401 34.5938 73.6692 34.4909 73.9192 34.418C74.1718 34.3424 74.4427 34.3047 74.7317 34.3047ZM74.9544 39.7695C75.2434 39.7695 75.5078 39.7174 75.7473 39.6133C75.9869 39.5091 76.1927 39.3581 76.3645 39.1602C76.539 38.9622 76.6744 38.7214 76.7708 38.4375C76.8671 38.151 76.9153 37.8268 76.9153 37.4648C76.9153 37.0638 76.8684 36.6927 76.7747 36.3516C76.6835 36.0078 76.5468 35.7109 76.3645 35.4609C76.1822 35.2083 75.9544 35.0117 75.6809 34.8711C75.4101 34.7279 75.0937 34.6562 74.7317 34.6562C74.4427 34.6562 74.1783 34.7083 73.9388 34.8125C73.6992 34.9141 73.4921 35.0625 73.3177 35.2578C73.1458 35.4531 73.0117 35.6927 72.9153 35.9766C72.819 36.2604 72.7708 36.5833 72.7708 36.9453C72.7708 37.3438 72.8164 37.7161 72.9075 38.0625C72.9986 38.4062 73.1354 38.7044 73.3177 38.957C73.4999 39.2096 73.7278 39.4089 74.0013 39.5547C74.2747 39.6979 74.5924 39.7695 74.9544 39.7695ZM81.0248 34.3047C81.4597 34.3047 81.8608 34.3763 82.228 34.5195C82.5978 34.6602 82.9168 34.8594 83.185 35.1172C83.4532 35.3724 83.6629 35.6797 83.8139 36.0391C83.9649 36.3984 84.0405 36.7956 84.0405 37.2305C84.0405 37.4779 84.0118 37.7214 83.9545 37.9609C83.8972 38.2005 83.8126 38.4271 83.7006 38.6406C83.5913 38.8542 83.4558 39.0521 83.2944 39.2344C83.1329 39.4141 82.948 39.5703 82.7397 39.7031C82.534 39.8333 82.3061 39.9349 82.0561 40.0078C81.8061 40.0833 81.5366 40.1211 81.2475 40.1211C80.8126 40.1211 80.4103 40.0521 80.0405 39.9141C79.6733 39.7734 79.3556 39.5755 79.0873 39.3203C78.8191 39.0651 78.6095 38.7591 78.4584 38.4023C78.3074 38.043 78.2319 37.6445 78.2319 37.207C78.2319 36.9596 78.2605 36.7161 78.3178 36.4766C78.3751 36.237 78.4584 36.0091 78.5678 35.793C78.6798 35.5768 78.8152 35.3789 78.9741 35.1992C79.1355 35.0169 79.3191 34.8594 79.5248 34.7266C79.7332 34.5938 79.9623 34.4909 80.2123 34.418C80.4649 34.3424 80.7358 34.3047 81.0248 34.3047ZM81.2475 39.7695C81.5366 39.7695 81.8009 39.7174 82.0405 39.6133C82.2801 39.5091 82.4858 39.3581 82.6577 39.1602C82.8321 38.9622 82.9676 38.7214 83.0639 38.4375C83.1603 38.151 83.2084 37.8268 83.2084 37.4648C83.2084 37.0638 83.1616 36.6927 83.0678 36.3516C82.9767 36.0078 82.8399 35.7109 82.6577 35.4609C82.4754 35.2083 82.2475 35.0117 81.9741 34.8711C81.7032 34.7279 81.3868 34.6562 81.0248 34.6562C80.7358 34.6562 80.4715 34.7083 80.2319 34.8125C79.9923 34.9141 79.7853 35.0625 79.6108 35.2578C79.4389 35.4531 79.3048 35.6927 79.2084 35.9766C79.1121 36.2604 79.0639 36.5833 79.0639 36.9453C79.0639 37.3438 79.1095 37.7161 79.2006 38.0625C79.2918 38.4062 79.4285 38.7044 79.6108 38.957C79.7931 39.2096 80.0209 39.4089 80.2944 39.5547C80.5678 39.6979 80.8855 39.7695 81.2475 39.7695ZM84.7633 39.9844C84.7789 39.9297 84.7932 39.862 84.8063 39.7812C84.8219 39.7005 84.8349 39.6003 84.8453 39.4805C84.8557 39.3607 84.8635 39.2188 84.8688 39.0547C84.874 38.888 84.8766 38.694 84.8766 38.4727V35.9297C84.8766 35.7083 84.874 35.5156 84.8688 35.3516C84.8635 35.1849 84.8557 35.0417 84.8453 34.9219C84.8349 34.7995 84.8219 34.6979 84.8063 34.6172C84.7932 34.5365 84.7789 34.4688 84.7633 34.4141V34.3984H85.7008V34.4141C85.6852 34.4688 85.6695 34.5365 85.6539 34.6172C85.6409 34.6979 85.6292 34.7995 85.6188 34.9219C85.6109 35.0417 85.6031 35.1849 85.5953 35.3516C85.5901 35.5156 85.5875 35.7083 85.5875 35.9297V36.8008L87.8688 34.9375C88.124 34.7292 88.2516 34.5495 88.2516 34.3984H89.3492V34.4141C89.1956 34.4505 89.0393 34.5208 88.8805 34.625C88.7242 34.7266 88.5576 34.8516 88.3805 35L86.3648 36.6875L88.7906 39.3516C88.8922 39.4557 88.9781 39.543 89.0484 39.6133C89.1214 39.681 89.1852 39.7383 89.2398 39.7852C89.2945 39.8294 89.344 39.8672 89.3883 39.8984C89.4352 39.9271 89.4833 39.9557 89.5328 39.9844V40H88.3883C88.3779 39.9766 88.3596 39.9466 88.3336 39.9102C88.3102 39.8737 88.2815 39.8359 88.2477 39.7969C88.2164 39.7578 88.1813 39.7174 88.1422 39.6758C88.1057 39.6341 88.0706 39.5951 88.0367 39.5586L85.5875 36.8711V38.4727C85.5875 38.694 85.5901 38.888 85.5953 39.0547C85.6031 39.2188 85.6109 39.3607 85.6188 39.4805C85.6292 39.6003 85.6409 39.7005 85.6539 39.7812C85.6695 39.862 85.6852 39.9297 85.7008 39.9844V40H84.7633V39.9844ZM92.1111 35.2891H92.0252C92.0043 35.2292 91.9705 35.1615 91.9236 35.0859C91.8793 35.0104 91.8194 34.9401 91.7439 34.875C91.671 34.8073 91.5811 34.7513 91.4744 34.707C91.3702 34.6628 91.2465 34.6406 91.1033 34.6406C90.9757 34.6406 90.8624 34.6602 90.7634 34.6992C90.6645 34.7383 90.5811 34.793 90.5134 34.8633C90.4483 34.9336 90.3989 35.0169 90.365 35.1133C90.3311 35.2096 90.3142 35.3164 90.3142 35.4336C90.3142 35.6211 90.3663 35.8008 90.4705 35.9727C90.5772 36.1419 90.7101 36.3099 90.8689 36.4766C91.0278 36.6432 91.1996 36.8099 91.3845 36.9766C91.5694 37.1432 91.7413 37.3164 91.9002 37.4961C92.059 37.6758 92.1905 37.8646 92.2947 38.0625C92.4015 38.2578 92.4548 38.4688 92.4548 38.6953C92.4548 38.8646 92.4249 39.0352 92.365 39.207C92.3077 39.3763 92.2179 39.5286 92.0955 39.6641C91.9731 39.7995 91.8155 39.9102 91.6228 39.9961C91.4301 40.0794 91.2009 40.1211 90.9353 40.1211C90.7869 40.1211 90.6449 40.1068 90.5095 40.0781C90.3767 40.0521 90.253 40.0195 90.1384 39.9805C90.0265 39.9388 89.9249 39.8945 89.8338 39.8477C89.7452 39.8008 89.6723 39.7578 89.615 39.7188L89.7048 38.8555H89.8025C89.8311 38.9779 89.878 39.0951 89.9431 39.207C90.0082 39.3164 90.0877 39.4141 90.1814 39.5C90.2778 39.5833 90.3871 39.651 90.5095 39.7031C90.6319 39.7526 90.766 39.7773 90.9119 39.7773C91.0447 39.7773 91.1632 39.7578 91.2673 39.7188C91.3741 39.6771 91.4653 39.6211 91.5408 39.5508C91.6163 39.4779 91.6736 39.3919 91.7127 39.293C91.7543 39.194 91.7752 39.0859 91.7752 38.9688C91.7752 38.8047 91.7452 38.6536 91.6853 38.5156C91.6254 38.375 91.546 38.2422 91.447 38.1172C91.3507 37.9922 91.24 37.8711 91.115 37.7539C90.9926 37.6367 90.8663 37.5195 90.7361 37.4023C90.6059 37.2826 90.4783 37.1602 90.3533 37.0352C90.2309 36.9102 90.1202 36.7773 90.0213 36.6367C89.9249 36.4935 89.8468 36.3411 89.7869 36.1797C89.727 36.0156 89.697 35.8359 89.697 35.6406C89.697 35.4349 89.7361 35.25 89.8142 35.0859C89.8949 34.9193 90.0004 34.7773 90.1306 34.6602C90.2634 34.543 90.4132 34.4531 90.5798 34.3906C90.7465 34.3281 90.9184 34.2969 91.0955 34.2969C91.2257 34.2969 91.3455 34.3073 91.4548 34.3281C91.5642 34.349 91.6619 34.3737 91.7478 34.4023C91.8364 34.431 91.9132 34.4596 91.9783 34.4883C92.0434 34.5169 92.0968 34.5404 92.1384 34.5586L92.1111 35.2891ZM94.7284 34.7422C94.4211 34.7422 94.1438 34.7565 93.8964 34.7852C93.649 34.8112 93.4355 34.8398 93.2558 34.8711C93.0474 34.9102 92.8613 34.9531 92.6972 35L92.8105 34.3672C92.8417 34.3698 92.8886 34.3724 92.9511 34.375C93.0136 34.3776 93.0826 34.3802 93.1581 34.3828C93.2363 34.3854 93.317 34.388 93.4003 34.3906C93.4863 34.3906 93.567 34.3919 93.6425 34.3945C93.718 34.3945 93.7844 34.3958 93.8417 34.3984C93.9016 34.3984 93.9446 34.3984 93.9706 34.3984H96.2011C96.2271 34.3984 96.2688 34.3984 96.3261 34.3984C96.386 34.3958 96.4537 34.3945 96.5292 34.3945C96.6047 34.3919 96.6842 34.3906 96.7675 34.3906C96.8534 34.388 96.9342 34.3854 97.0097 34.3828C97.0878 34.3802 97.1581 34.3776 97.2206 34.375C97.2831 34.3724 97.33 34.3698 97.3613 34.3672L97.4745 35C97.3079 34.9531 97.1204 34.9102 96.912 34.8711C96.7323 34.8398 96.5188 34.8112 96.2714 34.7852C96.024 34.7565 95.7467 34.7422 95.4394 34.7422V38.4727C95.4394 38.694 95.442 38.888 95.4472 39.0547C95.455 39.2188 95.4628 39.3607 95.4706 39.4805C95.481 39.6003 95.4928 39.7005 95.5058 39.7812C95.5214 39.862 95.537 39.9297 95.5527 39.9844V40H94.6191V39.9844C94.6347 39.9297 94.649 39.862 94.662 39.7812C94.6751 39.7005 94.6868 39.6003 94.6972 39.4805C94.7076 39.3607 94.7154 39.2188 94.7206 39.0547C94.7258 38.888 94.7284 38.694 94.7284 38.4727V34.7422ZM100.268 34.3047C100.703 34.3047 101.104 34.3763 101.471 34.5195C101.841 34.6602 102.16 34.8594 102.428 35.1172C102.696 35.3724 102.906 35.6797 103.057 36.0391C103.208 36.3984 103.283 36.7956 103.283 37.2305C103.283 37.4779 103.255 37.7214 103.197 37.9609C103.14 38.2005 103.055 38.4271 102.943 38.6406C102.834 38.8542 102.699 39.0521 102.537 39.2344C102.376 39.4141 102.191 39.5703 101.982 39.7031C101.777 39.8333 101.549 39.9349 101.299 40.0078C101.049 40.0833 100.779 40.1211 100.49 40.1211C100.055 40.1211 99.6531 40.0521 99.2833 39.9141C98.9161 39.7734 98.5984 39.5755 98.3302 39.3203C98.0619 39.0651 97.8523 38.7591 97.7012 38.4023C97.5502 38.043 97.4747 37.6445 97.4747 37.207C97.4747 36.9596 97.5033 36.7161 97.5606 36.4766C97.6179 36.237 97.7012 36.0091 97.8106 35.793C97.9226 35.5768 98.058 35.3789 98.2169 35.1992C98.3783 35.0169 98.5619 34.8594 98.7677 34.7266C98.976 34.5938 99.2052 34.4909 99.4552 34.418C99.7078 34.3424 99.9786 34.3047 100.268 34.3047ZM100.49 39.7695C100.779 39.7695 101.044 39.7174 101.283 39.6133C101.523 39.5091 101.729 39.3581 101.9 39.1602C102.075 38.9622 102.21 38.7214 102.307 38.4375C102.403 38.151 102.451 37.8268 102.451 37.4648C102.451 37.0638 102.404 36.6927 102.311 36.3516C102.219 36.0078 102.083 35.7109 101.9 35.4609C101.718 35.2083 101.49 35.0117 101.217 34.8711C100.946 34.7279 100.63 34.6562 100.268 34.6562C99.9786 34.6562 99.7143 34.7083 99.4747 34.8125C99.2351 34.9141 99.0281 35.0625 98.8536 35.2578C98.6817 35.4531 98.5476 35.6927 98.4512 35.9766C98.3549 36.2604 98.3067 36.5833 98.3067 36.9453C98.3067 37.3438 98.3523 37.7161 98.4434 38.0625C98.5346 38.4062 98.6713 38.7044 98.8536 38.957C99.0359 39.2096 99.2637 39.4089 99.5372 39.5547C99.8106 39.6979 100.128 39.7695 100.49 39.7695ZM104.83 38.4727C104.83 38.694 104.833 38.888 104.838 39.0547C104.846 39.2188 104.854 39.3607 104.862 39.4805C104.872 39.6003 104.884 39.7005 104.897 39.7812C104.912 39.862 104.928 39.9297 104.944 39.9844V40H104.006V39.9844C104.022 39.9297 104.036 39.862 104.049 39.7812C104.065 39.7005 104.076 39.6003 104.084 39.4805C104.095 39.3607 104.102 39.2188 104.108 39.0547C104.115 38.8906 104.119 38.6966 104.119 38.4727V35.9297C104.119 35.7083 104.115 35.5156 104.108 35.3516C104.102 35.1849 104.095 35.0417 104.084 34.9219C104.076 34.8021 104.065 34.7018 104.049 34.6211C104.036 34.5378 104.022 34.4688 104.006 34.4141V34.3984L104.17 34.4141C104.22 34.4193 104.274 34.4232 104.334 34.4258C104.397 34.4258 104.461 34.4258 104.526 34.4258C104.627 34.4258 104.764 34.4141 104.936 34.3906C105.11 34.3646 105.332 34.3516 105.6 34.3516C105.85 34.3516 106.08 34.3854 106.291 34.4531C106.505 34.5208 106.69 34.6198 106.846 34.75C107.002 34.8802 107.123 35.0404 107.209 35.2305C107.298 35.418 107.342 35.6315 107.342 35.8711C107.342 36.0586 107.317 36.2331 107.268 36.3945C107.221 36.5534 107.153 36.6979 107.065 36.8281C106.979 36.9583 106.875 37.0742 106.752 37.1758C106.63 37.2747 106.493 37.3581 106.342 37.4258L107.713 39.3516C107.781 39.4479 107.843 39.5312 107.901 39.6016C107.961 39.6719 108.017 39.7331 108.069 39.7852C108.123 39.8346 108.175 39.8763 108.225 39.9102C108.274 39.9414 108.325 39.9661 108.377 39.9844V40H107.248C107.24 39.9505 107.214 39.8854 107.17 39.8047C107.128 39.7214 107.079 39.6393 107.022 39.5586L105.639 37.6094C105.579 37.6146 105.519 37.6198 105.459 37.625C105.399 37.6276 105.338 37.6289 105.276 37.6289C105.203 37.6289 105.128 37.6263 105.053 37.6211C104.98 37.6159 104.906 37.6068 104.83 37.5938V38.4727ZM104.83 37.2891C104.901 37.3047 104.972 37.3164 105.045 37.3242C105.118 37.3294 105.188 37.332 105.256 37.332C105.451 37.332 105.63 37.3034 105.791 37.2461C105.953 37.1862 106.089 37.0964 106.201 36.9766C106.316 36.8568 106.405 36.7083 106.467 36.5312C106.53 36.3516 106.561 36.1419 106.561 35.9023C106.561 35.707 106.539 35.5299 106.494 35.3711C106.45 35.2122 106.384 35.0781 106.295 34.9688C106.209 34.8568 106.1 34.7708 105.967 34.7109C105.834 34.6484 105.679 34.6172 105.502 34.6172C105.323 34.6172 105.179 34.6263 105.073 34.6445C104.966 34.6628 104.885 34.6823 104.83 34.7031V37.2891ZM108.573 34.3984C108.898 34.3984 109.221 34.3971 109.541 34.3945C109.864 34.3919 110.16 34.3893 110.428 34.3867C110.696 34.3815 110.926 34.375 111.116 34.3672C111.306 34.3594 111.435 34.349 111.502 34.3359L111.311 34.8555C111.225 34.832 111.125 34.8112 111.01 34.793C110.911 34.7773 110.79 34.763 110.647 34.75C110.506 34.7344 110.343 34.7266 110.159 34.7266C110.096 34.7266 110.021 34.7292 109.932 34.7344C109.846 34.737 109.763 34.7409 109.682 34.7461C109.588 34.7513 109.493 34.7565 109.397 34.7617V36.8945C109.665 36.8919 109.907 36.8841 110.123 36.8711C110.34 36.8581 110.523 36.8451 110.674 36.832C110.851 36.8164 111.008 36.7982 111.143 36.7773L111.022 37.3438C110.842 37.3203 110.659 37.2982 110.471 37.2773C110.31 37.2591 110.134 37.2435 109.944 37.2305C109.754 37.2148 109.571 37.207 109.397 37.207V39.6562C109.704 39.6562 109.987 39.6432 110.245 39.6172C110.502 39.5911 110.728 39.5612 110.92 39.5273C111.144 39.4909 111.349 39.4479 111.534 39.3984L111.42 40.0312C111.389 40.0286 111.342 40.026 111.28 40.0234C111.217 40.0208 111.147 40.0182 111.069 40.0156C110.993 40.013 110.912 40.0104 110.827 40.0078C110.743 40.0078 110.664 40.0065 110.588 40.0039C110.513 40.0039 110.445 40.0026 110.385 40C110.328 40 110.286 40 110.26 40H108.573V39.9844C108.588 39.9297 108.603 39.862 108.616 39.7812C108.631 39.7005 108.644 39.6003 108.655 39.4805C108.665 39.3607 108.673 39.2188 108.678 39.0547C108.683 38.888 108.686 38.694 108.686 38.4727V35.9297C108.686 35.7083 108.683 35.5156 108.678 35.3516C108.673 35.1849 108.665 35.0417 108.655 34.9219C108.644 34.7995 108.631 34.6979 108.616 34.6172C108.603 34.5365 108.588 34.4688 108.573 34.4141V34.3984Z" fill="currentColor"/>
<path d="M9.5 26.207V41.793L8.5 42.793V25.207L9.5 26.207ZM12.5 30.207V39.249L11.5 39.999V29.207L12.5 30.207Z" stroke="currentColor"/>
<path d="M25.5273 29.8353L25.7221 14.2506L26.7346 13.2632L26.5148 30.8477L25.5273 29.8353ZM22.5776 25.7981L22.6906 16.7569L23.6999 16.0194L23.565 26.8106L22.5776 25.7981Z" stroke="currentColor"/>
</svg>
